PathFileType	4	(X/Y/Z)	D:\TRACE\v60_Jaco2_6-2-23\BothDRS_Motion3_9-platform.trc
DataRate	CameraRate	NumFrames	NumMarkers	Units	OrigDataRate	OrigDataStartFrame	OrigNumFrames
100.00	100.00	      30	5	mm	100.00	3501	      7000
Frame#	Time	Left_Front			Right_Front			Left_Aft			Right_Aft			Post			
		X1	Y1	Z1	X2	Y2	Z2	X3	Y3	Z3	X4	Y4	Z4	X5	Y5	Z5	

3501	35.000	-750.32758	10.74516	-649.79938	820.72723	9.37205	-627.37939	-680.68109	10.71148	486.26880	733.37250	7.89619	589.32483	44.96272	1308.78577	-961.26746	
3502	35.010	-750.01794	10.42661	-650.19220	820.65485	8.79277	-627.69867	-680.71149	11.06000	486.18491	733.38934	8.28800	589.24762	45.05003	1308.32397	-962.20422	
3503	35.020	-750.05615	10.02462	-650.41357	820.76581	8.23868	-627.70557	-680.66919	11.41051	486.11902	733.43848	8.56365	589.17505	45.02321	1307.47168	-963.50092	
3504	35.030	-750.00397	9.58454	-650.64233	820.79279	7.96639	-627.79285	-680.56384	11.53824	486.04678	733.53925	9.01472	589.04852	45.06374	1306.95313	-964.37256	
3505	35.040	-749.87042	9.12761	-650.74854	820.86658	7.65071	-627.86212	-680.25671	11.88206	485.90771	733.80219	9.27889	588.86249	45.24634	1306.50525	-965.17603	
3506	35.050	-749.68915	8.61995	-650.60345	820.96155	7.19831	-627.94873	-680.10162	12.20634	485.82172	733.77606	9.55011	588.71863	45.13146	1305.63037	-966.21490	
3507	35.060	-749.62085	7.80562	-650.63531	821.00226	6.62589	-628.16418	-680.00848	12.44716	485.76324	733.69855	9.97215	588.59515	45.20059	1304.98938	-967.12567	
3508	35.070	-749.52008	7.51623	-650.83643	821.13470	6.14045	-628.29761	-680.03931	12.76444	485.68997	733.71625	10.40794	588.47308	45.42771	1304.06323	-968.03821	
3509	35.080	-749.46869	7.07280	-651.07385	821.36664	5.57918	-628.79681	-680.28577	13.12827	485.59976	733.80768	10.72063	588.34668	45.67719	1303.52380	-968.92322	
3510	35.090	-749.40021	6.49424	-651.31372	821.30304	5.43672	-628.35419	-680.25165	13.60218	485.35815	733.95093	10.85364	588.07855	45.49670	1302.90283	-969.82440	
3511	35.100	-749.22552	5.72305	-652.03101	821.15790	4.77469	-628.58698	-680.16467	14.01509	485.13818	733.95044	11.07369	587.98785	45.58972	1302.12573	-970.90698	
3512	35.110	-749.19714	5.33611	-651.92816	821.27118	4.26417	-628.66681	-680.03613	14.28771	485.07541	733.90479	11.51710	587.86908	45.78617	1301.65710	-971.88165	
3513	35.120	-749.24524	5.20279	-651.55743	821.37946	3.85372	-628.82703	-679.98059	14.42887	485.02756	733.97589	11.94682	587.82837	45.88268	1300.94568	-973.09991	
3514	35.130	-749.23523	5.00933	-651.73889	821.52875	3.19430	-629.22174	-680.05780	14.61431	484.97104	734.14337	12.29917	587.70520	45.82634	1300.24158	-974.17175	
3515	35.140	-749.20593	4.69328	-651.96600	821.43207	3.17031	-628.84375	-679.93213	14.83684	484.87521	734.05591	12.66201	587.64154	45.93340	1299.55701	-975.10785	
3516	35.150	-749.13763	4.17132	-652.08234	821.40430	2.75858	-629.00018	-679.87292	15.13323	484.62216	734.09448	13.08525	587.48541	46.05864	1299.10413	-976.25476	
3517	35.160	-748.94202	3.24836	-652.44611	821.52710	2.36250	-629.15320	-679.92688	15.46978	484.43851	734.19824	13.45131	587.33978	45.95732	1298.58557	-977.35760	
3518	35.170	-748.96991	2.84543	-652.37378	821.62848	1.99362	-629.14551	-679.80847	15.92187	484.33728	734.16113	13.66787	587.26422	46.06025	1297.88269	-978.07666	
3519	35.180	-748.83984	2.74486	-652.05237	821.67096	1.49385	-629.30139	-679.75812	16.25539	484.34222	734.28485	14.10654	587.42145	46.07480	1297.05493	-978.75153	
3520	35.190	-748.79633	2.32360	-652.05768	821.91180	1.04254	-629.80652	-679.58771	16.48045	484.26627	734.59106	14.47380	587.22900	46.35948	1296.65320	-979.30994	
3521	35.200	-748.84949	1.89392	-652.29028	821.77185	0.79053	-629.48621	-679.46313	16.70426	484.08112	734.05341	14.70846	587.03033	46.32356	1296.18152	-980.12238	
3522	35.210	-749.00140	1.66100	-652.54547	821.91180	0.40351	-629.52765	-679.35590	16.97894	484.01541	734.52704	15.44908	587.07837	46.31704	1295.35547	-981.03235	
3523	35.220	-748.94897	1.38174	-652.61224	821.98016	-0.14315	-629.60931	-679.32611	17.15713	483.93716	734.46509	15.47058	587.02759	46.50388	1294.83008	-981.58521	
3524	35.230	-748.80341	1.14890	-652.57874	821.91217	-0.47453	-629.66284	-679.33539	17.31704	483.91428	734.25983	15.35944	586.90863	46.50467	1294.52234	-982.13019	
3525	35.240	-748.61676	0.89409	-652.34662	822.00525	-0.69649	-629.72321	-679.20575	17.45124	483.87497	734.08185	15.33755	586.71979	46.84645	1293.97131	-982.86530	
3526	35.250	-748.52637	0.65560	-652.34143	822.37585	-1.07224	-630.09583	-679.12201	17.69133	483.77341	734.35443	15.51826	586.57184	46.83398	1293.45300	-983.72321	
3527	35.260	-748.41998	0.26463	-652.41321	822.14459	-1.20607	-629.77881	-679.01508	17.96391	483.67688	734.44928	15.92008	586.65063	46.87273	1293.05249	-984.58649	
3528	35.270	-748.41083	-0.17325	-652.59991	822.07404	-1.51489	-630.01611	-679.01276	18.21731	483.54089	734.90253	16.86751	586.73145	46.90496	1292.53979	-985.52240	
3529	35.280	-748.41980	-0.73750	-652.60217	822.03888	-1.89419	-630.07733	-679.02582	18.39241	483.50021	734.91815	17.18345	586.58417	46.97410	1292.08594	-986.14789	
3530	35.290	-748.46204	-1.03190	-652.58997	822.17682	-2.15223	-630.12964	-679.04755	18.55452	483.49527	734.95459	17.33515	586.51044	46.94718	1291.78149	-986.84393	
